<svg width="104" height="82" viewBox="0 0 104 82" fill="none" xmlns="http://www.w3.org/2000/svg">
<path d="M14.208 12.096C13.568 12.096 12.956 12 12.372 11.808C11.788 11.608 11.328 11.352 10.992 11.04L11.436 10.104C11.756 10.384 12.164 10.616 12.66 10.8C13.156 10.984 13.672 11.076 14.208 11.076C14.696 11.076 15.092 11.02 15.396 10.908C15.7 10.796 15.924 10.644 16.068 10.452C16.212 10.252 16.284 10.028 16.284 9.78C16.284 9.492 16.188 9.26 15.996 9.084C15.812 8.908 15.568 8.768 15.264 8.664C14.968 8.552 14.64 8.456 14.28 8.376C13.92 8.296 13.556 8.204 13.188 8.1C12.828 7.988 12.496 7.848 12.192 7.68C11.896 7.512 11.656 7.288 11.472 7.008C11.288 6.72 11.196 6.352 11.196 5.904C11.196 5.472 11.308 5.076 11.532 4.716C11.764 4.348 12.116 4.056 12.588 3.84C13.068 3.616 13.676 3.504 14.412 3.504C14.9 3.504 15.384 3.568 15.864 3.696C16.344 3.824 16.76 4.008 17.112 4.248L16.716 5.208C16.356 4.968 15.976 4.796 15.576 4.692C15.176 4.58 14.788 4.524 14.412 4.524C13.94 4.524 13.552 4.584 13.248 4.704C12.944 4.824 12.72 4.984 12.576 5.184C12.44 5.384 12.372 5.608 12.372 5.856C12.372 6.152 12.464 6.388 12.648 6.564C12.84 6.74 13.084 6.88 13.38 6.984C13.684 7.088 14.016 7.184 14.376 7.272C14.736 7.352 15.096 7.444 15.456 7.548C15.824 7.652 16.156 7.788 16.452 7.956C16.756 8.124 17 8.348 17.184 8.628C17.368 8.908 17.46 9.268 17.46 9.708C17.46 10.132 17.344 10.528 17.112 10.896C16.88 11.256 16.52 11.548 16.032 11.772C15.552 11.988 14.944 12.096 14.208 12.096ZM21.7211 12.072C21.1771 12.072 20.6971 11.972 20.2811 11.772C19.8731 11.572 19.5531 11.268 19.3211 10.86C19.0971 10.444 18.9851 9.924 18.9851 9.3V5.64H20.1371V9.168C20.1371 9.792 20.2851 10.26 20.5811 10.572C20.8851 10.884 21.3091 11.04 21.8531 11.04C22.2531 11.04 22.6011 10.96 22.8971 10.8C23.1931 10.632 23.4211 10.392 23.5811 10.08C23.7411 9.76 23.8211 9.376 23.8211 8.928V5.64H24.9731V12H23.8811V10.284L24.0611 10.74C23.8531 11.164 23.5411 11.492 23.1251 11.724C22.7091 11.956 22.2411 12.072 21.7211 12.072ZM30.5382 12.072C30.0102 12.072 29.5262 11.952 29.0862 11.712C28.6542 11.464 28.3062 11.1 28.0422 10.62C27.7862 10.14 27.6582 9.54 27.6582 8.82C27.6582 8.1 27.7822 7.5 28.0302 7.02C28.2862 6.54 28.6302 6.18 29.0622 5.94C29.5022 5.7 29.9942 5.58 30.5382 5.58C31.1622 5.58 31.7142 5.716 32.1942 5.988C32.6742 6.26 33.0542 6.64 33.3342 7.128C33.6142 7.608 33.7542 8.172 33.7542 8.82C33.7542 9.468 33.6142 10.036 33.3342 10.524C33.0542 11.012 32.6742 11.392 32.1942 11.664C31.7142 11.936 31.1622 12.072 30.5382 12.072ZM27.1662 14.328V5.64H28.2702V7.356L28.1982 8.832L28.3182 10.308V14.328H27.1662ZM30.4422 11.064C30.8502 11.064 31.2142 10.972 31.5342 10.788C31.8622 10.604 32.1182 10.344 32.3022 10.008C32.4942 9.664 32.5902 9.268 32.5902 8.82C32.5902 8.364 32.4942 7.972 32.3022 7.644C32.1182 7.308 31.8622 7.048 31.5342 6.864C31.2142 6.68 30.8502 6.588 30.4422 6.588C30.0422 6.588 29.6782 6.68 29.3502 6.864C29.0302 7.048 28.7742 7.308 28.5822 7.644C28.3982 7.972 28.3062 8.364 28.3062 8.82C28.3062 9.268 28.3982 9.664 28.5822 10.008C28.7742 10.344 29.0302 10.604 29.3502 10.788C29.6782 10.972 30.0422 11.064 30.4422 11.064ZM38.7179 12.072C38.1899 12.072 37.7059 11.952 37.2659 11.712C36.8339 11.464 36.4859 11.1 36.2219 10.62C35.9659 10.14 35.8379 9.54 35.8379 8.82C35.8379 8.1 35.9619 7.5 36.2099 7.02C36.4659 6.54 36.8099 6.18 37.2419 5.94C37.6819 5.7 38.1739 5.58 38.7179 5.58C39.3419 5.58 39.8939 5.716 40.3739 5.988C40.8539 6.26 41.2339 6.64 41.5139 7.128C41.7939 7.608 41.9339 8.172 41.9339 8.82C41.9339 9.468 41.7939 10.036 41.5139 10.524C41.2339 11.012 40.8539 11.392 40.3739 11.664C39.8939 11.936 39.3419 12.072 38.7179 12.072ZM35.3459 14.328V5.64H36.4499V7.356L36.3779 8.832L36.4979 10.308V14.328H35.3459ZM38.6219 11.064C39.0299 11.064 39.3939 10.972 39.7139 10.788C40.0419 10.604 40.2979 10.344 40.4819 10.008C40.6739 9.664 40.7699 9.268 40.7699 8.82C40.7699 8.364 40.6739 7.972 40.4819 7.644C40.2979 7.308 40.0419 7.048 39.7139 6.864C39.3939 6.68 39.0299 6.588 38.6219 6.588C38.2219 6.588 37.8579 6.68 37.5299 6.864C37.2099 7.048 36.9539 7.308 36.7619 7.644C36.5779 7.972 36.4859 8.364 36.4859 8.82C36.4859 9.268 36.5779 9.664 36.7619 10.008C36.9539 10.344 37.2099 10.604 37.5299 10.788C37.8579 10.972 38.2219 11.064 38.6219 11.064ZM46.2496 12.072C45.6096 12.072 45.0416 11.932 44.5456 11.652C44.0496 11.372 43.6576 10.988 43.3696 10.5C43.0816 10.004 42.9376 9.444 42.9376 8.82C42.9376 8.188 43.0816 7.628 43.3696 7.14C43.6576 6.652 44.0496 6.272 44.5456 6C45.0416 5.72 45.6096 5.58 46.2496 5.58C46.8816 5.58 47.4456 5.72 47.9416 6C48.4456 6.272 48.8376 6.652 49.1176 7.14C49.4056 7.62 49.5496 8.18 49.5496 8.82C49.5496 9.452 49.4056 10.012 49.1176 10.5C48.8376 10.988 48.4456 11.372 47.9416 11.652C47.4456 11.932 46.8816 12.072 46.2496 12.072ZM46.2496 11.064C46.6576 11.064 47.0216 10.972 47.3416 10.788C47.6696 10.604 47.9256 10.344 48.1096 10.008C48.2936 9.664 48.3856 9.268 48.3856 8.82C48.3856 8.364 48.2936 7.972 48.1096 7.644C47.9256 7.308 47.6696 7.048 47.3416 6.864C47.0216 6.68 46.6576 6.588 46.2496 6.588C45.8416 6.588 45.4776 6.68 45.1576 6.864C44.8376 7.048 44.5816 7.308 44.3896 7.644C44.1976 7.972 44.1016 8.364 44.1016 8.82C44.1016 9.268 44.1976 9.664 44.3896 10.008C44.5816 10.344 44.8376 10.604 45.1576 10.788C45.4776 10.972 45.8416 11.064 46.2496 11.064ZM51.1428 12V5.64H52.2468V7.368L52.1388 6.936C52.3148 6.496 52.6108 6.16 53.0268 5.928C53.4428 5.696 53.9548 5.58 54.5628 5.58V6.696C54.5148 6.688 54.4668 6.684 54.4188 6.684C54.3788 6.684 54.3388 6.684 54.2988 6.684C53.6828 6.684 53.1948 6.868 52.8348 7.236C52.4748 7.604 52.2948 8.136 52.2948 8.832V12H51.1428ZM58.4244 12.072C57.7844 12.072 57.2884 11.9 56.9364 11.556C56.5844 11.212 56.4084 10.72 56.4084 10.08V4.248H57.5604V10.032C57.5604 10.376 57.6444 10.64 57.8124 10.824C57.9884 11.008 58.2364 11.1 58.5564 11.1C58.9164 11.1 59.2164 11 59.4564 10.8L59.8164 11.628C59.6404 11.78 59.4284 11.892 59.1804 11.964C58.9404 12.036 58.6884 12.072 58.4244 12.072ZM55.3284 6.588V5.64H59.3844V6.588H55.3284ZM63.8303 12.072C63.1503 12.072 62.5503 11.932 62.0303 11.652C61.5183 11.372 61.1183 10.988 60.8303 10.5C60.5503 10.012 60.4103 9.452 60.4103 8.82C60.4103 8.188 60.5463 7.628 60.8183 7.14C61.0983 6.652 61.4783 6.272 61.9583 6C62.4463 5.72 62.9943 5.58 63.6023 5.58C64.2183 5.58 64.7623 5.716 65.2343 5.988C65.7063 6.26 66.0743 6.644 66.3383 7.14C66.6103 7.628 66.7463 8.2 66.7463 8.856C66.7463 8.904 66.7423 8.96 66.7343 9.024C66.7343 9.088 66.7303 9.148 66.7223 9.204H61.3103V8.376H66.1223L65.6543 8.664C65.6623 8.256 65.5783 7.892 65.4023 7.572C65.2263 7.252 64.9823 7.004 64.6703 6.828C64.3663 6.644 64.0103 6.552 63.6023 6.552C63.2023 6.552 62.8463 6.644 62.5343 6.828C62.2223 7.004 61.9783 7.256 61.8023 7.584C61.6263 7.904 61.5383 8.272 61.5383 8.688V8.88C61.5383 9.304 61.6343 9.684 61.8263 10.02C62.0263 10.348 62.3023 10.604 62.6543 10.788C63.0063 10.972 63.4103 11.064 63.8663 11.064C64.2423 11.064 64.5823 11 64.8863 10.872C65.1983 10.744 65.4703 10.552 65.7023 10.296L66.3383 11.04C66.0503 11.376 65.6903 11.632 65.2583 11.808C64.8343 11.984 64.3583 12.072 63.8303 12.072ZM70.9739 12.072C70.3579 12.072 69.8059 11.936 69.3179 11.664C68.8379 11.392 68.4579 11.012 68.1779 10.524C67.8979 10.036 67.7579 9.468 67.7579 8.82C67.7579 8.172 67.8979 7.608 68.1779 7.128C68.4579 6.64 68.8379 6.26 69.3179 5.988C69.8059 5.716 70.3579 5.58 70.9739 5.58C71.5099 5.58 71.9939 5.7 72.4259 5.94C72.8579 6.18 73.2019 6.54 73.4579 7.02C73.7219 7.5 73.8539 8.1 73.8539 8.82C73.8539 9.54 73.7259 10.14 73.4699 10.62C73.2219 11.1 72.8819 11.464 72.4499 11.712C72.0179 11.952 71.5259 12.072 70.9739 12.072ZM71.0699 11.064C71.4699 11.064 71.8299 10.972 72.1499 10.788C72.4779 10.604 72.7339 10.344 72.9179 10.008C73.1099 9.664 73.2059 9.268 73.2059 8.82C73.2059 8.364 73.1099 7.972 72.9179 7.644C72.7339 7.308 72.4779 7.048 72.1499 6.864C71.8299 6.68 71.4699 6.588 71.0699 6.588C70.6619 6.588 70.2979 6.68 69.9779 6.864C69.6579 7.048 69.4019 7.308 69.2099 7.644C69.0179 7.972 68.9219 8.364 68.9219 8.82C68.9219 9.268 69.0179 9.664 69.2099 10.008C69.4019 10.344 69.6579 10.604 69.9779 10.788C70.2979 10.972 70.6619 11.064 71.0699 11.064ZM73.2419 12V10.284L73.3139 8.808L73.1939 7.332V3.096H74.3459V12H73.2419ZM83.1203 12.072C82.5763 12.072 82.0843 11.952 81.6443 11.712C81.2123 11.464 80.8683 11.1 80.6123 10.62C80.3643 10.14 80.2402 9.54 80.2402 8.82C80.2402 8.1 80.3683 7.5 80.6243 7.02C80.8883 6.54 81.2363 6.18 81.6683 5.94C82.1083 5.7 82.5923 5.58 83.1203 5.58C83.7443 5.58 84.2963 5.716 84.7763 5.988C85.2563 6.26 85.6363 6.64 85.9163 7.128C86.1963 7.608 86.3363 8.172 86.3363 8.82C86.3363 9.468 86.1963 10.036 85.9163 10.524C85.6363 11.012 85.2563 11.392 84.7763 11.664C84.2963 11.936 83.7443 12.072 83.1203 12.072ZM79.7483 12V3.096H80.9003V7.332L80.7803 8.808L80.8523 10.284V12H79.7483ZM83.0243 11.064C83.4323 11.064 83.7963 10.972 84.1163 10.788C84.4443 10.604 84.7003 10.344 84.8843 10.008C85.0763 9.664 85.1723 9.268 85.1723 8.82C85.1723 8.364 85.0763 7.972 84.8843 7.644C84.7003 7.308 84.4443 7.048 84.1163 6.864C83.7963 6.68 83.4323 6.588 83.0243 6.588C82.6243 6.588 82.2603 6.68 81.9323 6.864C81.6123 7.048 81.3563 7.308 81.1643 7.644C80.9803 7.972 80.8883 8.364 80.8883 8.82C80.8883 9.268 80.9803 9.664 81.1643 10.008C81.3563 10.344 81.6123 10.604 81.9323 10.788C82.2603 10.972 82.6243 11.064 83.0243 11.064ZM88.0282 14.4C87.7242 14.4 87.4282 14.348 87.1402 14.244C86.8522 14.148 86.6042 14.004 86.3962 13.812L86.8882 12.948C87.0482 13.1 87.2242 13.216 87.4162 13.296C87.6082 13.376 87.8122 13.416 88.0282 13.416C88.3082 13.416 88.5402 13.344 88.7242 13.2C88.9082 13.056 89.0802 12.8 89.2402 12.432L89.6362 11.556L89.7562 11.412L92.2522 5.64H93.3802L90.2962 12.636C90.1122 13.084 89.9042 13.436 89.6722 13.692C89.4482 13.948 89.2002 14.128 88.9282 14.232C88.6562 14.344 88.3562 14.4 88.0282 14.4ZM89.5402 12.204L86.6362 5.64H87.8362L90.3082 11.304L89.5402 12.204Z" fill="white"/>
<g clip-path="url(#clip0_521_14)">
<mask id="mask0_521_14" style="mask-type:luminance" maskUnits="userSpaceOnUse" x="0" y="27" width="104" height="55">
<path d="M104 27.0264H0V81.801H104V27.0264Z" fill="white"/>
</mask>
<g mask="url(#mask0_521_14)">
<path d="M90.8401 60.9844C90.8401 62.4766 90.5136 63.7186 89.8717 64.6766C89.2365 65.6368 88.438 66.3581 87.4965 66.8225C86.5638 67.2868 85.6334 67.5235 84.7343 67.5235C83.2403 67.5235 81.9923 67.0051 81.0306 65.984C80.0733 64.9583 79.5902 63.5586 79.5902 61.8229V46.1367H75.3721V62.0821C75.3721 64.2122 75.7232 66.0065 76.4188 67.4176C77.1166 68.8264 78.094 69.8993 79.3218 70.6049C80.543 71.2969 81.9565 71.6485 83.5221 71.6485C85.4142 71.6485 87.0067 71.1954 88.2547 70.3028C89.3819 69.4868 90.2497 68.4973 90.8401 67.359V71.3262H95.0583V46.1367H90.8401V60.9866V60.9844Z" fill="white"/>
<path d="M69.0805 55.4373C68.1098 54.7431 67.0765 54.1863 66.0097 53.7828C64.9697 53.3883 64.0124 53.0728 63.1603 52.8451L59.8189 51.939C59.2195 51.7812 58.553 51.5715 57.8418 51.3168C57.135 51.0553 56.4484 50.7195 55.8065 50.3228C55.1758 49.9215 54.6502 49.419 54.2431 48.8262C53.854 48.2334 53.6572 47.512 53.6572 46.6803C53.6572 45.6817 53.9434 44.7778 54.5093 43.9956C55.0886 43.2045 55.9094 42.5733 56.9427 42.1202C57.9961 41.6627 59.2463 41.4305 60.6576 41.4305C62.5855 41.4305 64.2316 41.8723 65.5534 42.7469C66.8529 43.6057 67.6043 44.8297 67.7877 46.385L67.8101 46.5834H72.0752L72.0663 46.3512C72.0126 44.6471 71.4803 43.103 70.4895 41.7641C69.5121 40.4297 68.1702 39.3657 66.504 38.6016C64.8422 37.8284 62.9165 37.4385 60.7851 37.4385C58.6536 37.4385 56.7347 37.8352 55.0192 38.6174C53.3083 39.3928 51.9238 40.4995 50.904 41.9106C49.8886 43.3172 49.3741 44.9875 49.3741 46.8741C49.3741 49.153 50.1525 51.0238 51.6845 52.4349C53.1942 53.8256 55.2675 54.9099 57.8462 55.6582L61.8743 56.8191C63.0082 57.1369 64.0795 57.5133 65.0569 57.9371C66.0119 58.3519 66.7925 58.8951 67.3762 59.5556C67.9421 60.1957 68.2306 61.0455 68.2306 62.0801C68.2306 63.2252 67.8929 64.2396 67.2241 65.0961C66.5487 65.9527 65.616 66.6334 64.4553 67.1203C63.2855 67.6004 61.9414 67.8439 60.4652 67.8439C59.1971 67.8439 57.9938 67.6523 56.8957 67.2758C55.8177 66.8926 54.9119 66.3066 54.2074 65.5334C53.5185 64.758 53.1181 63.7617 53.0175 62.5715L52.9996 62.3664H48.4639L48.4818 62.6076C48.6115 64.4447 49.1796 66.0834 50.1704 67.4742C51.1701 68.865 52.5545 69.9627 54.2879 70.7381C56.0234 71.509 58.1034 71.9012 60.4675 71.9012C63.0037 71.9012 65.1933 71.4662 66.9714 70.6074C68.7696 69.7441 70.1563 68.5629 71.0889 67.0955C72.035 65.6258 72.5158 63.9601 72.5158 62.141C72.5158 60.5609 72.1871 59.2062 71.5407 58.1129C70.8988 57.0265 70.0713 56.1271 69.0805 55.4351V55.4373Z" fill="white"/>
<path d="M103.871 39.6593C103.871 38.8884 103.578 38.2212 103.003 37.6757C102.439 37.1324 101.755 36.8574 100.963 36.8574C100.171 36.8574 99.4826 37.1324 98.9078 37.6779C98.3419 38.2234 98.0557 38.8906 98.0557 39.6615C98.0557 40.4324 98.3419 41.0974 98.91 41.6451C99.4826 42.1884 100.174 42.4634 100.965 42.4634C101.757 42.4634 102.377 42.2132 102.922 41.7218L102.947 41.6992C102.967 41.6812 102.987 41.6632 103.007 41.6429L103.088 41.564C103.611 41.032 103.875 40.3918 103.875 39.6593H103.871Z" fill="white"/>
<path d="M103.038 46.1338H98.8203V71.3234H103.038V46.1338Z" fill="white"/>
<path fill-rule="evenodd" clip-rule="evenodd" d="M33.9823 49.8422C36.1965 52.644 37.5205 56.1875 37.5205 60.042C37.5205 63.8965 36.1562 67.5481 33.8839 70.3657L33.6871 70.6092L33.6356 70.3004C33.5909 70.0389 33.5394 69.7729 33.4791 69.5069C32.3406 64.4668 28.6324 60.1457 22.5289 56.645C18.4069 54.2873 16.0473 51.4516 15.4278 48.226C15.0274 46.141 15.3249 44.0469 15.8997 42.2527C16.4745 40.4606 17.3289 38.9572 18.0557 38.0533L20.431 35.1274C20.847 34.6135 21.6275 34.6135 22.0435 35.1274L33.9845 49.8422H33.9823ZM37.7375 46.9186L21.8221 27.308C21.5179 26.9338 20.9498 26.9338 20.6457 27.308L4.73256 46.9186L4.68112 46.984C1.75346 50.6469 0 55.3016 0 60.3688C0 72.169 9.50761 81.7354 21.2339 81.7354C32.9602 81.7354 42.4678 72.169 42.4678 60.3688C42.4678 55.3016 40.7143 50.6469 37.7867 46.9863L37.7352 46.9209L37.7375 46.9186ZM8.54142 49.7791L9.96387 48.0231L10.0064 48.3477C10.0399 48.6047 10.0824 48.8617 10.1316 49.1209C11.0531 53.992 14.3431 58.0516 19.8428 61.1961C24.6245 63.9393 27.409 67.0928 28.2097 70.5506C28.5452 71.9932 28.6034 73.4133 28.458 74.6553L28.449 74.7319L28.3797 74.7657C26.2214 75.8274 23.7948 76.4248 21.2317 76.4248C12.2385 76.4248 4.94727 69.0899 4.94727 60.0397C4.94727 56.1537 6.29144 52.5854 8.53695 49.7746L8.54142 49.7791Z" fill="white"/>
</g>
</g>
<defs>
<clipPath id="clip0_521_14">
<rect width="104" height="55" fill="white" transform="translate(0 27)"/>
</clipPath>
</defs>
</svg>
