<svg width="509" height="176" viewBox="0 0 509 176" fill="none" xmlns="http://www.w3.org/2000/svg">
<g clip-path="url(#clip0_386_3)">
<path fill-rule="evenodd" clip-rule="evenodd" d="M98.8176 123.201L56.3451 111.82L44.965 69.3479L51.546 71.1116L49.5543 63.6772L39.256 60.9179L0.000880586 100.173L14.369 153.796L67.9926 168.165L107.248 128.91L92.8793 75.286L73.5084 70.0957L75.5004 77.5297L87.437 80.7283L98.8176 123.201ZM66.0005 160.731L97.0924 129.639L54.6202 118.258L23.5283 149.35L66.0005 160.731ZM18.8153 144.637L49.9071 113.545L38.5267 71.0732L7.43488 102.165L18.8153 144.637ZM61.2718 53.0412L103.744 64.4216L115.124 106.894L108.543 105.13L110.535 112.565L120.833 115.324L160.088 76.069L145.72 22.4455L92.0966 8.07734L52.8414 47.3325L67.2099 100.955L86.5804 106.146L84.5887 98.7117L72.6519 95.5134L61.2718 53.0412ZM141.274 31.6045L110.182 62.6963L121.562 105.169L152.654 74.077L141.274 31.6045ZM94.0886 15.5114L62.9968 46.6032L105.469 57.9833L136.561 26.8914L94.0886 15.5114Z" fill="white"/>
<path d="M193.432 -3.6776H190.609V179.677H193.432V-3.6776Z" fill="white"/>
<path d="M241.62 26.084H231.632V52H225.604V26.084H215.616V20.76H241.62V26.084ZM258.742 52.22C256.249 52.22 254.122 51.8093 252.362 50.988C250.632 50.1373 249.224 48.9787 248.138 47.512C247.082 46.0453 246.305 44.388 245.806 42.54C245.308 40.6627 245.058 38.712 245.058 36.688V20.76H251.13V36.688C251.13 37.9787 251.248 39.24 251.482 40.472C251.746 41.6747 252.172 42.76 252.758 43.728C253.345 44.696 254.122 45.4587 255.09 46.016C256.058 46.5733 257.261 46.852 258.698 46.852C260.165 46.852 261.382 46.5733 262.35 46.016C263.348 45.4293 264.125 44.652 264.682 43.684C265.269 42.716 265.694 41.6307 265.958 40.428C266.222 39.196 266.354 37.9493 266.354 36.688V20.76H272.382V36.688C272.382 38.8293 272.118 40.8387 271.59 42.716C271.092 44.5933 270.285 46.2507 269.17 47.688C268.085 49.096 266.677 50.2107 264.946 51.032C263.216 51.824 261.148 52.22 258.742 52.22ZM303.974 52V31.496L295.966 46.764H292.578L284.57 31.496V52H278.498V20.76H285.01L294.25 38.536L303.578 20.76H310.046V52H303.974ZM243.424 95.948C243.424 97.708 242.969 99.1893 242.06 100.392C241.151 101.565 239.919 102.46 238.364 103.076C236.839 103.692 235.167 104 233.348 104H218.256V72.76H234.976C236.443 72.76 237.704 73.156 238.76 73.948C239.845 74.7107 240.667 75.708 241.224 76.94C241.811 78.1427 242.104 79.404 242.104 80.724C242.104 82.22 241.723 83.6427 240.96 84.992C240.197 86.3413 239.083 87.3387 237.616 87.984C239.405 88.512 240.813 89.4653 241.84 90.844C242.896 92.2227 243.424 93.924 243.424 95.948ZM237.308 94.804C237.308 94.012 237.147 93.308 236.824 92.692C236.501 92.0467 236.061 91.548 235.504 91.196C234.976 90.8147 234.36 90.624 233.656 90.624H224.328V98.852H233.348C234.081 98.852 234.741 98.676 235.328 98.324C235.944 97.9427 236.428 97.444 236.78 96.828C237.132 96.212 237.308 95.5373 237.308 94.804ZM224.328 77.952V85.828H232.424C233.099 85.828 233.715 85.6667 234.272 85.344C234.829 85.0213 235.269 84.5667 235.592 83.98C235.944 83.3933 236.12 82.6893 236.12 81.868C236.12 81.076 235.959 80.3867 235.636 79.8C235.343 79.2133 234.932 78.7587 234.404 78.436C233.905 78.1133 233.333 77.952 232.688 77.952H224.328ZM248.162 104V72.76H254.234V98.676H270.162V104H248.162ZM286.502 104.22C284.214 104.22 282.131 103.78 280.254 102.9C278.406 102.02 276.807 100.832 275.458 99.336C274.138 97.8107 273.111 96.1093 272.378 94.232C271.645 92.3253 271.278 90.3747 271.278 88.38C271.278 86.2973 271.659 84.3173 272.422 82.44C273.214 80.5333 274.285 78.8467 275.634 77.38C277.013 75.884 278.626 74.7107 280.474 73.86C282.351 72.98 284.405 72.54 286.634 72.54C288.893 72.54 290.946 72.9947 292.794 73.904C294.671 74.8133 296.27 76.0307 297.59 77.556C298.91 79.0813 299.937 80.7827 300.67 82.66C301.403 84.5373 301.77 86.4733 301.77 88.468C301.77 90.5213 301.389 92.5013 300.626 94.408C299.863 96.2853 298.793 97.972 297.414 99.468C296.065 100.935 294.451 102.093 292.574 102.944C290.726 103.795 288.702 104.22 286.502 104.22ZM277.438 88.38C277.438 89.7293 277.643 91.0347 278.054 92.296C278.465 93.5573 279.051 94.6867 279.814 95.684C280.606 96.652 281.559 97.4293 282.674 98.016C283.818 98.5733 285.109 98.852 286.546 98.852C288.013 98.852 289.318 98.5587 290.462 97.972C291.606 97.356 292.559 96.5493 293.322 95.552C294.085 94.5253 294.657 93.396 295.038 92.164C295.449 90.9027 295.654 89.6413 295.654 88.38C295.654 87.0307 295.434 85.74 294.994 84.508C294.583 83.2467 293.982 82.132 293.19 81.164C292.427 80.1667 291.474 79.3893 290.33 78.832C289.215 78.2453 287.954 77.952 286.546 77.952C285.05 77.952 283.73 78.26 282.586 78.876C281.471 79.4627 280.533 80.2547 279.77 81.252C279.007 82.2493 278.421 83.364 278.01 84.596C277.629 85.828 277.438 87.0893 277.438 88.38ZM304.536 88.16C304.536 86.2533 304.873 84.3907 305.548 82.572C306.252 80.724 307.264 79.052 308.584 77.556C309.904 76.0307 311.517 74.828 313.424 73.948C315.331 73.0387 317.501 72.584 319.936 72.584C322.811 72.584 325.289 73.2147 327.372 74.476C329.484 75.7373 331.053 77.38 332.08 79.404L327.416 82.616C326.888 81.4427 326.199 80.5187 325.348 79.844C324.497 79.14 323.588 78.656 322.62 78.392C321.652 78.0987 320.699 77.952 319.76 77.952C318.235 77.952 316.9 78.26 315.756 78.876C314.641 79.492 313.703 80.2987 312.94 81.296C312.177 82.2933 311.605 83.408 311.224 84.64C310.872 85.872 310.696 87.104 310.696 88.336C310.696 89.7147 310.916 91.0493 311.356 92.34C311.796 93.6013 312.412 94.7307 313.204 95.728C314.025 96.696 314.993 97.4733 316.108 98.06C317.252 98.6173 318.499 98.896 319.848 98.896C320.816 98.896 321.799 98.7347 322.796 98.412C323.793 98.0893 324.717 97.576 325.568 96.872C326.419 96.168 327.079 95.2587 327.548 94.144L332.52 97.004C331.904 98.5587 330.892 99.8787 329.484 100.964C328.105 102.049 326.551 102.871 324.82 103.428C323.089 103.985 321.373 104.264 319.672 104.264C317.443 104.264 315.404 103.809 313.556 102.9C311.708 101.961 310.109 100.729 308.76 99.204C307.44 97.6493 306.399 95.9187 305.636 94.012C304.903 92.076 304.536 90.1253 304.536 88.16ZM336.592 104V72.804H342.664V87.632L355.776 72.76H362.464L350.496 86.62L363.212 104H356.348L346.624 90.536L342.664 94.672V104H336.592ZM362.329 88.16C362.329 86.2533 362.666 84.3907 363.341 82.572C364.045 80.724 365.057 79.052 366.377 77.556C367.697 76.0307 369.31 74.828 371.217 73.948C373.124 73.0387 375.294 72.584 377.729 72.584C380.604 72.584 383.082 73.2147 385.165 74.476C387.277 75.7373 388.846 77.38 389.873 79.404L385.209 82.616C384.681 81.4427 383.992 80.5187 383.141 79.844C382.29 79.14 381.381 78.656 380.413 78.392C379.445 78.0987 378.492 77.952 377.553 77.952C376.028 77.952 374.693 78.26 373.549 78.876C372.434 79.492 371.496 80.2987 370.733 81.296C369.97 82.2933 369.398 83.408 369.017 84.64C368.665 85.872 368.489 87.104 368.489 88.336C368.489 89.7147 368.709 91.0493 369.149 92.34C369.589 93.6013 370.205 94.7307 370.997 95.728C371.818 96.696 372.786 97.4733 373.901 98.06C375.045 98.6173 376.292 98.896 377.641 98.896C378.609 98.896 379.592 98.7347 380.589 98.412C381.586 98.0893 382.51 97.576 383.361 96.872C384.212 96.168 384.872 95.2587 385.341 94.144L390.313 97.004C389.697 98.5587 388.685 99.8787 387.277 100.964C385.898 102.049 384.344 102.871 382.613 103.428C380.882 103.985 379.166 104.264 377.465 104.264C375.236 104.264 373.197 103.809 371.349 102.9C369.501 101.961 367.902 100.729 366.553 99.204C365.233 97.6493 364.192 95.9187 363.429 94.012C362.696 92.076 362.329 90.1253 362.329 88.16ZM420.653 72.76V104H414.625V90.668H400.457V104H394.385V72.76H400.457V85.388H414.625V72.76H420.653ZM435.662 72.76H441.822L453.306 104H447.058L444.154 96.212H433.242L430.382 104H424.134L435.662 72.76ZM443.054 91.944L438.742 79.052L434.254 91.944H443.054ZM456.733 104V72.76H462.805V104H456.733ZM475.394 83.936V104H469.322V72.76H474.162L490.31 93.352V72.804H496.382V104H491.322L475.394 83.936ZM216.364 140.16C216.364 138.253 216.701 136.391 217.376 134.572C218.08 132.724 219.092 131.052 220.412 129.556C221.732 128.031 223.345 126.828 225.252 125.948C227.159 125.039 229.329 124.584 231.764 124.584C234.639 124.584 237.117 125.215 239.2 126.476C241.312 127.737 242.881 129.38 243.908 131.404L239.244 134.616C238.716 133.443 238.027 132.519 237.176 131.844C236.325 131.14 235.416 130.656 234.448 130.392C233.48 130.099 232.527 129.952 231.588 129.952C230.063 129.952 228.728 130.26 227.584 130.876C226.469 131.492 225.531 132.299 224.768 133.296C224.005 134.293 223.433 135.408 223.052 136.64C222.7 137.872 222.524 139.104 222.524 140.336C222.524 141.715 222.744 143.049 223.184 144.34C223.624 145.601 224.24 146.731 225.032 147.728C225.853 148.696 226.821 149.473 227.936 150.06C229.08 150.617 230.327 150.896 231.676 150.896C232.644 150.896 233.627 150.735 234.624 150.412C235.621 150.089 236.545 149.576 237.396 148.872C238.247 148.168 238.907 147.259 239.376 146.144L244.348 149.004C243.732 150.559 242.72 151.879 241.312 152.964C239.933 154.049 238.379 154.871 236.648 155.428C234.917 155.985 233.201 156.264 231.5 156.264C229.271 156.264 227.232 155.809 225.384 154.9C223.536 153.961 221.937 152.729 220.588 151.204C219.268 149.649 218.227 147.919 217.464 146.012C216.731 144.076 216.364 142.125 216.364 140.16ZM248.42 156V124.76H254.492V150.676H270.42V156H248.42ZM286.543 156.22C284.05 156.22 281.923 155.809 280.163 154.988C278.432 154.137 277.024 152.979 275.939 151.512C274.883 150.045 274.106 148.388 273.607 146.54C273.108 144.663 272.859 142.712 272.859 140.688V124.76H278.931V140.688C278.931 141.979 279.048 143.24 279.283 144.472C279.547 145.675 279.972 146.76 280.559 147.728C281.146 148.696 281.923 149.459 282.891 150.016C283.859 150.573 285.062 150.852 286.499 150.852C287.966 150.852 289.183 150.573 290.151 150.016C291.148 149.429 291.926 148.652 292.483 147.684C293.07 146.716 293.495 145.631 293.759 144.428C294.023 143.196 294.155 141.949 294.155 140.688V124.76H300.183V140.688C300.183 142.829 299.919 144.839 299.391 146.716C298.892 148.593 298.086 150.251 296.971 151.688C295.886 153.096 294.478 154.211 292.747 155.032C291.016 155.824 288.948 156.22 286.543 156.22ZM331.467 147.948C331.467 149.708 331.012 151.189 330.103 152.392C329.194 153.565 327.962 154.46 326.407 155.076C324.882 155.692 323.21 156 321.391 156H306.299V124.76H323.019C324.486 124.76 325.747 125.156 326.803 125.948C327.888 126.711 328.71 127.708 329.267 128.94C329.854 130.143 330.147 131.404 330.147 132.724C330.147 134.22 329.766 135.643 329.003 136.992C328.24 138.341 327.126 139.339 325.659 139.984C327.448 140.512 328.856 141.465 329.883 142.844C330.939 144.223 331.467 145.924 331.467 147.948ZM325.351 146.804C325.351 146.012 325.19 145.308 324.867 144.692C324.544 144.047 324.104 143.548 323.547 143.196C323.019 142.815 322.403 142.624 321.699 142.624H312.371V150.852H321.391C322.124 150.852 322.784 150.676 323.371 150.324C323.987 149.943 324.471 149.444 324.823 148.828C325.175 148.212 325.351 147.537 325.351 146.804ZM312.371 129.952V137.828H320.467C321.142 137.828 321.758 137.667 322.315 137.344C322.872 137.021 323.312 136.567 323.635 135.98C323.987 135.393 324.163 134.689 324.163 133.868C324.163 133.076 324.002 132.387 323.679 131.8C323.386 131.213 322.975 130.759 322.447 130.436C321.948 130.113 321.376 129.952 320.731 129.952H312.371Z" fill="white"/>
</g>
<defs>
<clipPath id="clip0_386_3">
<rect width="509" height="176" fill="white"/>
</clipPath>
</defs>
</svg>
