<svg width="464" height="189" viewBox="0 0 464 189" fill="none" xmlns="http://www.w3.org/2000/svg">
<path d="M34.3755 4.64603H20.1648V41.2335H14.9446V4.64603H0.733863V0H34.3755V4.64603Z" fill="white"/>
<path d="M57.3016 41.5239C54.0148 41.5239 51.25 40.9625 49.0072 39.8397C46.7644 38.6782 44.9663 37.1295 43.6129 35.1937C42.2595 33.2191 41.2735 30.9929 40.6548 28.515C40.0361 26.0371 39.7267 23.4818 39.7267 20.8491V0H44.947V20.8491C44.947 22.8623 45.1403 24.8369 45.527 26.7728C45.9524 28.6699 46.6291 30.3734 47.5571 31.8834C48.4851 33.3933 49.7419 34.5936 51.3273 35.4841C52.9127 36.3745 54.8848 36.8198 57.2436 36.8198C59.641 36.8198 61.6325 36.3745 63.2179 35.4841C64.8033 34.5549 66.06 33.3353 66.9881 31.8253C67.9161 30.2766 68.5735 28.5537 68.9602 26.6566C69.3855 24.7595 69.5982 22.8236 69.5982 20.8491V0H74.8184V20.8491C74.8184 23.6367 74.4898 26.2888 73.8324 28.8054C73.2137 31.2833 72.2083 33.4708 70.8162 35.3679C69.4242 37.265 67.6068 38.775 65.364 39.8978C63.1599 40.9819 60.4724 41.5239 57.3016 41.5239Z" fill="white"/>
<path d="M119.706 41.2335V9.75666L106.133 33.9741H102.943L89.3123 9.75666V41.2335H84.0921V0H89.6024L104.509 26.7728L119.474 0H124.926V41.2335H119.706Z" fill="white"/>
<path fill-rule="evenodd" clip-rule="evenodd" d="M0 64.7162V113.196H24.2099V105.116H32.2798V92.9963H24.2099V84.9163H32.2798V72.7962H24.2099V64.7162H0ZM24.2099 72.7962V84.9163H8.06996V72.7962H24.2099ZM8.06996 105.116H24.2099V92.9963H8.06996V105.116Z" fill="white"/>
<path d="M48.4198 64.7162H40.3498V113.196H64.5597V105.116H48.4198V64.7162Z" fill="white"/>
<path d="M80.6996 64.7162H96.8395V72.7962H80.6996V64.7162Z" fill="white"/>
<path d="M80.6996 105.116V72.7962H72.6296V105.116H80.6996Z" fill="white"/>
<path d="M96.8395 105.116V113.196H80.6996V105.116H96.8395Z" fill="white"/>
<path d="M96.8395 105.116V72.7962H104.909V105.116H96.8395Z" fill="white"/>
<path d="M121.049 64.7162H145.259V72.7962H121.049V64.7162Z" fill="white"/>
<path d="M121.049 105.116V72.7962H112.979V105.116H121.049Z" fill="white"/>
<path d="M121.049 105.116V113.196H145.259V105.116H121.049Z" fill="white"/>
<path d="M161.399 64.7162H153.329V113.196H161.399V88.9563H169.469V97.0364H177.539V113.196H185.609V97.0364H177.539V88.9563H169.469V80.8763H177.539V72.7962H185.609V64.7162H177.539V72.7962H169.469V80.8763H161.399V64.7162Z" fill="white"/>
<path d="M201.749 64.7162H225.959V72.7962H201.749V64.7162Z" fill="white"/>
<path d="M201.749 105.116V72.7962H193.679V105.116H201.749Z" fill="white"/>
<path d="M201.749 105.116V113.196H225.959V105.116H201.749Z" fill="white"/>
<path d="M234.029 64.7162H242.099V84.9163H258.239V64.7162H266.309V113.196H258.239V92.9963H242.099V113.196H234.029V64.7162Z" fill="white"/>
<path d="M282.449 64.7162H298.589V72.7962H282.449V64.7162Z" fill="white"/>
<path d="M282.449 88.9563V72.7962H274.379V113.196H282.449V97.0364H298.589V113.196H306.658V72.7962H298.589V88.9563H282.449Z" fill="white"/>
<path d="M314.728 64.7162H322.798V113.196H314.728V64.7162Z" fill="white"/>
<path d="M330.868 64.7162H338.938V76.8362H344.991V84.9163H351.043V92.9963H355.078V64.7162H363.148V113.196H355.078V101.076H349.026V92.9963H342.973V84.9163H338.938V113.196H330.868V64.7162Z" fill="white"/>
<path d="M1.75774 160.717C1.75774 158.201 2.18309 155.742 3.0338 153.342C3.92318 150.903 5.19924 148.696 6.86199 146.721C8.5634 144.708 10.6322 143.12 13.0683 141.959C15.5044 140.759 18.2692 140.159 21.3627 140.159C25.0362 140.159 28.1877 141.01 30.8172 142.714C33.4466 144.379 35.3994 146.528 36.6754 149.16L32.5572 151.832C31.7452 150.089 30.7012 148.715 29.4251 147.708C28.1877 146.663 26.8343 145.927 25.3649 145.502C23.9342 145.076 22.5228 144.863 21.1307 144.863C18.8492 144.863 16.8191 145.327 15.0404 146.257C13.3003 147.186 11.8309 148.425 10.6322 149.973C9.43345 151.522 8.52474 153.264 7.90604 155.2C7.32601 157.097 7.036 159.014 7.036 160.95C7.036 163.079 7.38401 165.131 8.08005 167.106C8.81475 169.08 9.82013 170.822 11.0962 172.332C12.3723 173.842 13.8803 175.043 15.6204 175.933C17.3605 176.824 19.2553 177.269 21.3047 177.269C22.7354 177.269 24.2048 177.017 25.7129 176.514C27.221 176.01 28.6324 175.236 29.9471 174.191C31.2618 173.107 32.3059 171.713 33.0793 170.009L37.4295 172.39C36.5788 174.442 35.264 176.185 33.4853 177.617C31.7065 179.05 29.7151 180.134 27.511 180.869C25.3456 181.605 23.1995 181.973 21.0727 181.973C18.2499 181.973 15.6591 181.373 13.3003 180.173C10.9415 178.934 8.89209 177.307 7.152 175.294C5.45059 173.242 4.11652 170.958 3.14981 168.441C2.22176 165.886 1.75774 163.311 1.75774 160.717Z" fill="white"/>
<path d="M60.2146 181.915C57.3145 181.915 54.685 181.334 52.3262 180.173C49.9675 179.011 47.918 177.443 46.1779 175.468C44.4765 173.455 43.1618 171.21 42.2337 168.732C41.3057 166.215 40.8417 163.64 40.8417 161.008C40.8417 158.259 41.325 155.645 42.2918 153.167C43.2971 150.651 44.6699 148.425 46.41 146.489C48.1887 144.514 50.2575 142.966 52.6163 141.843C54.975 140.681 57.5465 140.101 60.3306 140.101C63.2308 140.101 65.8602 140.701 68.219 141.901C70.5778 143.101 72.6079 144.708 74.3093 146.721C76.0107 148.734 77.3255 150.98 78.2535 153.458C79.1816 155.936 79.6456 158.472 79.6456 161.066C79.6456 163.815 79.1622 166.447 78.1955 168.964C77.2288 171.442 75.8561 173.668 74.0773 175.643C72.3372 177.579 70.2878 179.108 67.929 180.231C65.5702 181.353 62.9988 181.915 60.2146 181.915ZM46.1199 161.008C46.1199 163.098 46.4486 165.131 47.106 167.106C47.802 169.041 48.7687 170.764 50.0061 172.274C51.2435 173.784 52.7323 174.984 54.4723 175.875C56.2124 176.765 58.1459 177.211 60.2726 177.211C62.4767 177.211 64.4488 176.746 66.1889 175.817C67.929 174.888 69.3984 173.649 70.5971 172.1C71.8345 170.551 72.7626 168.809 73.3813 166.873C74.0386 164.937 74.3673 162.982 74.3673 161.008C74.3673 158.917 74.0193 156.904 73.3233 154.968C72.6659 153.032 71.6992 151.309 70.4231 149.799C69.1857 148.25 67.697 147.05 65.9569 146.198C64.2555 145.308 62.3607 144.863 60.2726 144.863C58.0685 144.863 56.0964 145.327 54.3563 146.257C52.6163 147.147 51.1275 148.367 49.8901 149.915C48.6914 151.464 47.7634 153.206 47.106 155.142C46.4486 157.039 46.1199 158.994 46.1199 161.008Z" fill="white"/>
<path d="M92.1189 150.031V181.624H86.8986V140.391H91.3069L116.48 172.623V140.449H121.7V181.624H116.944L92.1189 150.031Z" fill="white"/>
<path d="M131.534 181.624V140.391H158.737V145.037H136.754V158.801H155.257V163.156H136.754V181.624H131.534Z" fill="white"/>
<path d="M193.307 176.978V181.624H165.35V140.391H192.785V145.037H170.57V158.394H189.885V162.75H170.57V176.978H193.307Z" fill="white"/>
<path d="M200.469 181.624V140.391H218.102C219.919 140.391 221.582 140.778 223.09 141.552C224.598 142.288 225.913 143.295 227.034 144.572C228.155 145.811 229.025 147.224 229.644 148.812C230.263 150.361 230.572 151.948 230.572 153.574C230.572 155.471 230.205 157.271 229.47 158.975C228.774 160.679 227.769 162.13 226.454 163.331C225.178 164.531 223.67 165.363 221.93 165.828L231.906 181.624H225.99L216.593 166.815H205.689V181.624H200.469ZM205.689 162.169H218.16C219.59 162.169 220.828 161.782 221.872 161.008C222.954 160.195 223.786 159.13 224.366 157.814C224.985 156.497 225.294 155.084 225.294 153.574C225.294 152.025 224.946 150.612 224.25 149.335C223.554 148.018 222.645 146.973 221.524 146.198C220.402 145.424 219.165 145.037 217.811 145.037H205.689V162.169Z" fill="white"/>
<path d="M266.547 176.978V181.624H238.59V140.391H266.025V145.037H243.81V158.394H263.125V162.75H243.81V176.978H266.547Z" fill="white"/>
<path d="M278.929 150.031V181.624H273.709V140.391H278.117L303.29 172.623V140.449H308.51V181.624H303.754L278.929 150.031Z" fill="white"/>
<path d="M315.675 160.717C315.675 158.201 316.101 155.742 316.951 153.342C317.841 150.903 319.117 148.696 320.78 146.721C322.481 144.708 324.55 143.12 326.986 141.959C329.422 140.759 332.187 140.159 335.28 140.159C338.954 140.159 342.105 141.01 344.735 142.714C347.364 144.379 349.317 146.528 350.593 149.16L346.475 151.832C345.663 150.089 344.619 148.715 343.343 147.708C342.105 146.663 340.752 145.927 339.283 145.502C337.852 145.076 336.44 144.863 335.048 144.863C332.767 144.863 330.737 145.327 328.958 146.257C327.218 147.186 325.749 148.425 324.55 149.973C323.351 151.522 322.442 153.264 321.824 155.2C321.244 157.097 320.954 159.014 320.954 160.95C320.954 163.079 321.302 165.131 321.998 167.106C322.732 169.08 323.738 170.822 325.014 172.332C326.29 173.842 327.798 175.043 329.538 175.933C331.278 176.824 333.173 177.269 335.222 177.269C336.653 177.269 338.123 177.017 339.631 176.514C341.139 176.01 342.55 175.236 343.865 174.191C345.18 173.107 346.224 171.713 346.997 170.009L351.347 172.39C350.496 174.442 349.182 176.185 347.403 177.617C345.624 179.05 343.633 180.134 341.429 180.869C339.263 181.605 337.117 181.973 334.99 181.973C332.168 181.973 329.577 181.373 327.218 180.173C324.859 178.934 322.81 177.307 321.07 175.294C319.368 173.242 318.034 170.958 317.067 168.441C316.139 165.886 315.675 163.311 315.675 160.717Z" fill="white"/>
<path d="M385.838 176.978V181.624H357.881V140.391H385.316V145.037H363.101V158.394H382.416V162.75H363.101V176.978H385.838Z" fill="white"/>
<path d="M405.234 181.624C405.234 180.076 405.35 178.624 405.582 177.269C405.853 175.914 406.317 174.617 406.974 173.378C407.67 172.139 408.637 170.958 409.874 169.835C411.112 168.674 412.716 167.551 414.689 166.467C415.849 165.809 417.009 165.189 418.169 164.608C419.367 164.028 420.469 163.408 421.475 162.75C422.519 162.092 423.35 161.375 423.969 160.601C424.588 159.788 424.897 158.859 424.897 157.814C424.897 156.923 424.626 156.071 424.085 155.258C423.582 154.406 422.809 153.729 421.765 153.226C420.759 152.684 419.503 152.413 417.995 152.413C416.835 152.413 415.771 152.567 414.805 152.877C413.876 153.187 413.026 153.593 412.252 154.097C411.518 154.561 410.86 155.065 410.28 155.607C409.739 156.11 409.275 156.575 408.888 157L405.698 153.4C406.007 153.051 406.529 152.587 407.264 152.006C407.999 151.387 408.927 150.767 410.048 150.148C411.17 149.528 412.465 149.005 413.934 148.58C415.443 148.115 417.086 147.883 418.865 147.883C421.262 147.883 423.312 148.309 425.013 149.16C426.753 149.973 428.087 151.096 429.015 152.529C429.943 153.922 430.407 155.491 430.407 157.233C430.407 158.743 430.079 160.059 429.421 161.182C428.803 162.305 427.991 163.292 426.985 164.144C426.018 164.996 424.994 165.731 423.911 166.351C422.867 166.931 421.92 167.435 421.069 167.861C419.329 168.712 417.84 169.487 416.603 170.184C415.365 170.88 414.341 171.577 413.528 172.274C412.755 172.932 412.117 173.629 411.614 174.365C411.15 175.101 410.802 175.972 410.57 176.978H431.045V181.624H405.234Z" fill="url(#paint0_linear_305_5)"/>
<path d="M453.791 189V179.185H435.173V174.655L455.416 148.463H458.896V174.539H464V179.185H458.896V189H453.791ZM440.451 174.539H454.314V156.362L440.451 174.539Z" fill="url(#paint1_linear_305_5)"/>
<defs>
<linearGradient id="paint0_linear_305_5" x1="409.676" y1="137.614" x2="469.931" y2="186.099" gradientUnits="userSpaceOnUse">
<stop stop-color="#FFCB6D"/>
<stop offset="0.515" stop-color="#E434A5"/>
<stop offset="1" stop-color="#348AEB"/>
</linearGradient>
<linearGradient id="paint1_linear_305_5" x1="409.676" y1="137.614" x2="469.931" y2="186.099" gradientUnits="userSpaceOnUse">
<stop stop-color="#FFCB6D"/>
<stop offset="0.515" stop-color="#E434A5"/>
<stop offset="1" stop-color="#348AEB"/>
</linearGradient>
</defs>
</svg>
