<svg width="1103" height="241" viewBox="0 0 1103 241" fill="none" xmlns="http://www.w3.org/2000/svg">
<path d="M133.568 109.686V127.204H70.2921V109.686H133.568ZM70.2921 158.31V140.792H133.568V158.31H70.2921Z" fill="#212121"/>
<path d="M187.266 111.551C180.783 111.551 176.334 114.282 173.92 119.744C172.668 122.63 172.042 126.316 172.042 130.801V170.1H152.995V97.6302H171.438V108.221C173.897 104.491 176.222 101.804 178.413 100.161C182.348 97.2306 187.333 95.7652 193.369 95.7652C200.926 95.7652 207.096 97.7412 211.88 101.693C216.709 105.601 219.123 112.106 219.123 121.209V170.1H199.54V125.939C199.54 122.12 199.025 119.189 197.997 117.146C196.119 113.416 192.542 111.551 187.266 111.551Z" fill="#212121"/>
<path d="M249.612 97.497V170.1H230.23V97.497H249.612ZM249.612 71.3201V90.3666L230.23 90.3666V71.3201H249.612Z" fill="#212121"/>
<path d="M261.725 71.9195H280.839V170.1H261.725V71.9195Z" fill="#212121"/>
<path d="M306.067 191.214C302.847 192.547 300.612 193.213 299.36 193.213V185.886C303.876 184.598 307.028 182.311 308.816 179.025C309.934 176.982 310.65 174.007 310.963 170.1L300.75 170.1V150.899L320.017 150.899V167.435C320.017 170.499 319.614 173.652 318.809 176.894C318.005 180.18 316.507 183.022 314.316 185.419C312.036 187.951 309.286 189.882 306.067 191.214ZM319.606 120.21H300.435V100.909H319.606V120.21Z" fill="#212121"/>
<path d="M434.545 89.3042H384.982V111.884H428.374V128.936H384.982V170.1H364.459V72.0528H434.545V89.3042Z" fill="#212121"/>
<path d="M500.982 106.689C507.152 114.371 510.237 123.452 510.237 133.932C510.237 144.589 507.152 153.714 500.982 161.307C494.812 168.856 485.445 172.631 472.881 172.631C460.317 172.631 450.949 168.856 444.779 161.307C438.609 153.714 435.524 144.589 435.524 133.932C435.524 123.452 438.609 114.371 444.779 106.689C450.949 99.0068 460.317 95.1657 472.881 95.1657C485.445 95.1657 494.812 99.0068 500.982 106.689ZM472.813 111.218C467.225 111.218 462.91 113.194 459.869 117.146C456.874 121.054 455.376 126.649 455.376 133.932C455.376 141.214 456.874 146.831 459.869 150.783C462.91 154.735 467.225 156.711 472.813 156.711C478.402 156.711 482.695 154.735 485.69 150.783C488.686 146.831 490.184 141.214 490.184 133.932C490.184 126.649 488.686 121.054 485.69 117.146C482.695 113.194 478.402 111.218 472.813 111.218Z" fill="#212121"/>
<path d="M563.999 159.842C563.82 160.064 563.373 160.73 562.657 161.84C561.942 162.95 561.092 163.927 560.109 164.771C557.113 167.435 554.207 169.256 551.39 170.233C548.618 171.21 545.354 171.698 541.598 171.698C530.778 171.698 523.49 167.835 519.734 160.108C517.633 155.846 516.582 149.562 516.582 141.258V97.497H536.166V141.258C536.166 145.388 536.657 148.496 537.641 150.584C539.385 154.269 542.805 156.112 547.902 156.112C554.43 156.112 558.902 153.492 561.316 148.252C562.568 145.41 563.194 141.658 563.194 136.995V97.497H582.576V170.1H563.999V159.842Z" fill="#212121"/>
<path d="M628.625 111.551C622.142 111.551 617.693 114.282 615.279 119.744C614.027 122.63 613.401 126.316 613.401 130.801V170.1H594.353V97.6302H612.797V108.221C615.256 104.491 617.581 101.804 619.772 100.161C623.707 97.2306 628.692 95.7652 634.728 95.7652C642.285 95.7652 648.455 97.7412 653.239 101.693C658.068 105.601 660.482 112.106 660.482 121.209V170.1H640.898V125.939C640.898 122.12 640.384 119.189 639.356 117.146C637.478 113.416 633.901 111.551 628.625 111.551Z" fill="#212121"/>
<path d="M737.851 72.0528V170.1H719.274V160.042C716.546 164.349 713.439 167.48 709.951 169.434C706.464 171.387 702.127 172.364 696.94 172.364C688.4 172.364 681.202 168.945 675.344 162.107C669.532 155.224 666.626 146.409 666.626 135.663C666.626 123.274 669.487 113.527 675.21 106.422C680.978 99.3176 688.669 95.7652 698.282 95.7652C702.708 95.7652 706.643 96.7421 710.085 98.6959C713.528 100.605 716.323 103.27 718.469 106.689V72.0528H737.851ZM686.343 134.265C686.343 140.97 687.685 146.321 690.368 150.317C693.006 154.358 697.03 156.378 702.44 156.378C707.85 156.378 711.963 154.38 714.78 150.384C717.597 146.387 719.005 141.214 719.005 134.864C719.005 125.983 716.748 119.633 712.232 115.814C709.459 113.505 706.24 112.351 702.574 112.351C696.985 112.351 692.871 114.46 690.233 118.678C687.64 122.852 686.343 128.048 686.343 134.265Z" fill="#212121"/>
<path d="M751.171 105.357C756.224 98.9624 764.898 95.7652 777.193 95.7652C785.197 95.7652 792.306 97.3416 798.521 100.494C804.736 103.647 807.843 109.597 807.843 118.345V151.649C807.843 153.958 807.888 156.756 807.977 160.042C808.112 162.529 808.492 164.216 809.118 165.104C809.744 165.992 810.683 166.725 811.934 167.302V170.1H791.143C790.562 168.634 790.16 167.258 789.936 165.97C789.713 164.682 789.534 163.217 789.4 161.574C786.762 164.416 783.721 166.836 780.278 168.834C776.165 171.188 771.515 172.364 766.328 172.364C759.711 172.364 754.234 170.499 749.897 166.769C745.604 162.995 743.458 157.666 743.458 150.783C743.458 141.858 746.923 135.397 753.854 131.4C757.654 129.225 763.243 127.67 770.621 126.738L777.126 125.939C780.658 125.495 783.185 124.939 784.705 124.273C787.432 123.119 788.796 121.32 788.796 118.878C788.796 115.903 787.745 113.86 785.644 112.75C783.587 111.596 780.547 111.018 776.523 111.018C772.007 111.018 768.81 112.129 766.932 114.349C765.591 115.992 764.696 118.212 764.249 121.01H745.806C746.208 114.66 747.997 109.442 751.171 105.357ZM765.389 156.378C767.178 157.844 769.369 158.576 771.962 158.576C776.076 158.576 779.854 157.378 783.296 154.98C786.784 152.582 788.595 148.208 788.729 141.858V134.797C787.522 135.552 786.292 136.174 785.04 136.662C783.833 137.107 782.156 137.528 780.01 137.928L775.718 138.727C771.694 139.438 768.81 140.304 767.066 141.325C764.115 143.057 762.64 145.743 762.64 149.385C762.64 152.626 763.556 154.957 765.389 156.378Z" fill="#212121"/>
<path d="M851.478 156.578V170.766L842.423 171.099C833.392 171.41 827.221 169.855 823.913 166.436C821.767 164.26 820.693 160.908 820.693 156.378V106.485H810.499V92.9639H820.693V71.3201H839.607V92.9639H851.478V106.485H839.607V150.051C839.607 153.026 839.987 154.891 840.747 155.646C841.507 156.356 843.832 156.711 847.722 156.711C848.303 156.711 848.907 156.711 849.533 156.711C850.203 156.667 850.852 156.623 851.478 156.578Z" fill="#212121"/>
<path d="M949.208 106.689C955.379 114.371 958.464 123.452 958.464 133.932C958.464 144.589 955.379 153.714 949.208 161.307C943.038 168.856 933.671 172.631 921.107 172.631C908.543 172.631 899.176 168.856 893.006 161.307C886.836 153.714 883.75 144.589 883.75 133.932C883.75 123.452 886.836 114.371 893.006 106.689C899.176 99.0068 908.543 95.1657 921.107 95.1657C933.671 95.1657 943.038 99.0068 949.208 106.689ZM921.04 111.218C915.451 111.218 911.136 113.194 908.096 117.146C905.1 121.054 903.602 126.649 903.602 133.932C903.602 141.214 905.1 146.831 908.096 150.783C911.136 154.735 915.451 156.711 921.04 156.711C926.629 156.711 930.921 154.735 933.917 150.783C936.913 146.831 938.411 141.214 938.411 133.932C938.411 126.649 936.913 121.054 933.917 117.146C930.921 113.194 926.629 111.218 921.04 111.218Z" fill="#212121"/>
<path d="M999.751 111.551C993.267 111.551 988.819 114.282 986.404 119.744C985.152 122.63 984.526 126.316 984.526 130.801V170.1H965.479V97.6302H983.923V108.221C986.382 104.491 988.707 101.804 990.898 100.161C994.832 97.2306 999.818 95.7652 1005.85 95.7652C1013.41 95.7652 1019.58 97.7412 1024.36 101.693C1029.19 105.601 1031.61 112.106 1031.61 121.209V170.1H1012.02V125.939C1012.02 122.12 1011.51 119.189 1010.48 117.146C1008.6 113.416 1005.03 111.551 999.751 111.551Z" fill="#212121"/>
<path d="M876.494 97.497V170.1H857.112V97.497H876.494ZM876.494 71.3201V90.3666L857.112 90.3666V71.3201H876.494Z" fill="#212121"/>
</svg>
