<svg width="48" height="48" viewBox="0 0 48 48" fill="none" xmlns="http://www.w3.org/2000/svg">
<path d="M12.4702 12.9066C9.70202 15.783 8 19.6927 8 24C8 32.8366 15.1634 40 24 40C26.1616 40 28.2232 39.5714 30.1042 38.7944C30.3342 37.2934 29.8296 35.8532 29.6232 35.3492C29.164 34.23 27.6482 32.3164 25.1178 29.6616C24.4424 28.9516 24.4858 28.407 24.7272 26.7886L24.755 26.6058C24.919 25.4972 25.1942 24.8418 28.9244 24.2496C30.8194 23.9492 31.3178 24.7066 32.0086 25.7554C32.085 25.8716 32.1614 25.9856 32.2396 26.0998C32.8958 27.0594 33.382 27.2788 34.1164 27.6128C34.4454 27.762 34.856 27.9502 35.4062 28.2628C36.7102 29.008 36.7102 29.8494 36.7102 31.6944V31.9036C36.7102 32.6868 36.6336 33.3744 36.5132 33.9718C38.6956 31.237 40 27.7708 40 24C40 17.4018 36.006 11.7364 30.3038 9.28964C29.1974 10.0363 27.6796 11.0945 27.15 11.82C26.8792 12.1908 26.4964 14.0833 25.2514 14.2395C24.9252 14.2805 24.4876 14.2518 24.024 14.2219C22.781 14.1412 21.0804 14.0321 20.536 15.5099C20.1904 16.4464 20.1296 18.9889 21.2478 20.3086C21.4268 20.5194 21.4614 20.9094 21.3398 21.347C21.18 21.9216 20.8572 22.2712 20.7566 22.3434C20.5638 22.2326 20.1792 21.7862 19.9188 21.4824C19.2911 20.753 18.5081 19.8447 17.4959 19.5635C17.1279 19.4617 16.7233 19.3773 16.331 19.2947C15.2328 19.0645 13.9889 18.8027 13.6998 18.186C13.4888 17.7344 13.4898 17.1124 13.4906 16.4553C13.4906 15.6224 13.4906 14.6806 13.0826 13.7651C12.9249 13.4108 12.7138 13.1289 12.4702 12.9066ZM24 44C12.9543 44 4 35.0456 4 24C4 12.9543 12.9543 4 24 4C35.0456 4 44 12.9543 44 24C44 35.0456 35.0456 44 24 44Z" fill="white"/>
</svg>
