<svg width="40" height="40" viewBox="0 0 40 40" fill="none" xmlns="http://www.w3.org/2000/svg">
<path d="M20 0C31.0456 0 40 8.9543 40 20C40 31.0456 31.0456 40 20 40C8.9543 40 0 31.0456 0 20C0 8.9543 8.9543 0 20 0ZM28.0086 21.7554C27.3178 20.7066 26.8194 19.9492 24.9244 20.2496C21.3434 20.818 20.9464 21.4448 20.7754 22.475L20.7272 22.7886L20.6786 23.1194C20.4832 24.4856 20.4906 25.0024 21.1178 25.6616C23.6482 28.3164 25.164 30.23 25.6232 31.3492C25.8474 31.8968 26.4238 33.5502 26.0272 35.1854C28.4744 34.2132 30.6312 32.6664 32.3306 30.7118C32.551 29.9642 32.7102 29.0332 32.7102 27.9036V27.6944C32.7102 25.8494 32.7102 25.008 31.4062 24.2628C30.856 23.9502 30.4454 23.762 30.1164 23.6128C29.382 23.2788 28.8958 23.0594 28.2396 22.0998C28.1614 21.9856 28.085 21.8716 28.0086 21.7554ZM20 3.66666C15.3652 3.66666 11.1812 5.59716 8.2084 8.69792C8.56232 8.94372 8.87074 9.28906 9.08258 9.76512C9.49058 10.6806 9.49058 11.6224 9.49058 12.4553C9.48976 13.1124 9.48884 13.7344 9.69984 14.186C9.98886 14.8027 11.2328 15.0645 12.331 15.2947C12.7233 15.3773 13.1279 15.4617 13.4959 15.5635C14.5081 15.8447 15.2911 16.753 15.9188 17.4824C16.1792 17.7862 16.5638 18.2326 16.7566 18.3434C16.8572 18.2712 17.18 17.9216 17.3398 17.347C17.4614 16.9094 17.4268 16.5194 17.2478 16.3086C16.1296 14.9889 16.1904 12.4464 16.536 11.5099C17.0804 10.0321 18.781 10.1412 20.024 10.2219C20.4876 10.2518 20.9252 10.2805 21.2514 10.2395C22.4964 10.0833 22.8792 8.19076 23.15 7.82C23.7342 7.01962 25.5214 5.8142 26.6316 5.06908C24.605 4.16764 22.361 3.66666 20 3.66666Z" fill="white"/>
</svg>
