<svg width="48" height="48" viewBox="0 0 48 48" fill="none" xmlns="http://www.w3.org/2000/svg">
<path fill-rule="evenodd" clip-rule="evenodd" d="M21 8.99998V22.5627L18.5661 26.5454L27.4339 26.5454L25 22.5626V8.99995L21 8.99998ZM29 8.99996L31 9L31 5H15V9H17V21.4373L7.58687 36.8406C7.20308 37.4686 7 38.1903 7 38.9264V40C7 42.2091 8.79087 44 11 44L35 43.9999C37.2092 43.9999 39 42.209 39 39.9999V38.9263C39 38.1902 38.7969 37.4685 38.4131 36.8405L29 21.4372V8.99996ZM29.8783 30.5454L16.1217 30.5454L11 38.9264V40L35 39.9999V38.9263L29.8783 30.5454Z" fill="white"/>
</svg>
