<svg width="32" height="39" viewBox="0 0 32 39" fill="none" xmlns="http://www.w3.org/2000/svg">
<path d="M2.29344 32.8836C2.10154 33.1976 2 33.5585 2 33.9265V35.0001C2 36.1047 2.89544 37.0001 4.00001 37.0001L28 37C29.1046 37 30 36.1046 30 35V33.9264C30 33.5584 29.8985 33.1975 29.7066 32.8835L24 23.5455L8 23.5456L2.29344 32.8836Z" fill="white"/>
<path d="M8 2.00011H12M12 2.00011V17.0001L8 23.5456M12 2.00011L20 2.00004M20 2.00004V17L24 23.5455M20 2.00004L24 2.00011M8 23.5456L2.29344 32.8836C2.10154 33.1976 2 33.5585 2 33.9265V35.0001C2 36.1047 2.89544 37.0001 4.00001 37.0001L28 37C29.1046 37 30 36.1046 30 35V33.9264C30 33.5584 29.8985 33.1975 29.7066 32.8835L24 23.5455M8 23.5456L24 23.5455" stroke="#FDFDFD" stroke-width="4"/>
</svg>
