<svg width="48" height="48" viewBox="0 0 48 48" fill="none" xmlns="http://www.w3.org/2000/svg">
<path fill-rule="evenodd" clip-rule="evenodd" d="M16.1475 17.1631C15.3135 16.4932 14.6777 15.7002 14.2402 14.7842C13.8027 13.8545 13.584 12.7402 13.584 11.4414C13.584 10.2656 13.8301 9.20605 14.3223 8.2627C14.8145 7.31934 15.5186 6.5127 16.4346 5.84277C17.3643 5.15918 18.4717 4.63965 19.7568 4.28418C21.042 3.91504 22.4844 3.73047 24.084 3.73047C26.2578 3.73047 28.1309 4.06543 29.7031 4.73535C31.2754 5.40527 32.4785 6.39648 33.3125 7.70898C34.1602 9.00781 34.584 10.6006 34.584 12.4873H29.1699C29.1699 11.6533 28.9717 10.9014 28.5752 10.2314C28.1924 9.54785 27.625 9.00781 26.873 8.61133C26.1348 8.20117 25.2051 7.99609 24.084 7.99609C22.9082 7.99609 21.9443 8.15332 21.1924 8.46777C20.4541 8.76855 19.9072 9.17871 19.5518 9.69824C19.1963 10.2041 19.0186 10.7715 19.0186 11.4004C19.0186 11.9473 19.1074 12.4258 19.2852 12.8359C19.4629 13.2324 19.7773 13.5879 20.2285 13.9023C20.6797 14.2168 21.3086 14.5244 22.1152 14.8252C22.9219 15.1123 23.9541 15.4268 25.2119 15.7686C26.7705 16.1787 28.1582 16.6299 29.375 17.1221C30.5918 17.6143 31.6172 18.1885 32.4512 18.8447C33.2988 19.501 33.9414 20.2871 34.3789 21.2031C34.8164 22.1055 35.0352 23.1787 35.0352 24.4229C35.0352 25.5439 34.7959 26.5352 34.3174 27.3965C33.8389 28.2441 33.1621 28.9619 32.2871 29.5498C32.0584 29.7035 31.8171 29.8473 31.5631 29.9814C31.6636 30.0551 31.7613 30.13 31.8564 30.2061C32.6904 30.8623 33.3193 31.6553 33.7432 32.585C34.1807 33.501 34.3994 34.6084 34.3994 35.9072C34.3994 37.1377 34.1533 38.2246 33.6611 39.168C33.1689 40.1113 32.4648 40.9043 31.5488 41.5469C30.6328 42.2031 29.5322 42.6953 28.2471 43.0234C26.9756 43.3652 25.5469 43.5361 23.9609 43.5361C22.5938 43.5361 21.2471 43.3926 19.9209 43.1055C18.6084 42.8184 17.4258 42.3398 16.373 41.6699C15.3203 41.0137 14.4795 40.1318 13.8506 39.0244C13.2217 37.917 12.9072 36.543 12.9072 34.9023L18.3213 34.8818C18.3213 35.7295 18.4854 36.4404 18.8135 37.0146C19.1416 37.5889 19.5791 38.0332 20.126 38.3477C20.6729 38.6758 21.2812 38.9082 21.9512 39.0449C22.6211 39.1816 23.291 39.25 23.9609 39.25C25.041 39.25 25.9502 39.1064 26.6885 38.8193C27.4404 38.5459 28.0078 38.1562 28.3906 37.6504C28.7871 37.1582 28.9854 36.5908 28.9854 35.9482C28.9854 35.4424 28.8828 34.998 28.6777 34.6152C28.4863 34.2324 28.1514 33.877 27.6729 33.5488C27.208 33.2207 26.5654 32.9062 25.7451 32.6055C24.9385 32.291 23.9336 31.9561 22.7305 31.6006C21.2129 31.1904 19.8457 30.7393 18.6289 30.2471C17.4258 29.7549 16.4004 29.1807 15.5527 28.5244C14.7051 27.8682 14.0557 27.0889 13.6045 26.1865C13.167 25.2705 12.9482 24.1904 12.9482 22.9463C12.9482 21.8525 13.1738 20.8818 13.625 20.0342C14.0898 19.1865 14.7461 18.4688 15.5938 17.8809C15.8536 17.6964 16.1296 17.5255 16.4216 17.368C16.3283 17.3006 16.2369 17.2323 16.1475 17.1631ZM29.6621 24.8535C29.6621 25.5645 29.4775 26.207 29.1084 26.7812C28.7561 27.3163 28.2543 27.7392 27.603 28.05C26.6949 27.7272 25.7065 27.4205 24.6377 27.1299C23.3662 26.7607 22.3203 26.4189 21.5 26.1045C20.6934 25.79 20.0576 25.4688 19.5928 25.1406C19.1416 24.7988 18.8271 24.416 18.6494 23.9922C18.4717 23.5684 18.3828 23.0693 18.3828 22.4951C18.3828 21.7842 18.5264 21.1621 18.8135 20.6289C19.1143 20.082 19.5791 19.6514 20.208 19.3369C20.2391 19.3217 20.2705 19.3069 20.3024 19.2924C21.2235 19.6219 22.2242 19.9375 23.3047 20.2393C24.5215 20.6221 25.54 20.9775 26.3604 21.3057C27.1807 21.6338 27.8301 21.9756 28.3086 22.3311C28.8008 22.6729 29.1494 23.0488 29.3545 23.459C29.5596 23.8691 29.6621 24.334 29.6621 24.8535Z" fill="white"/>
</svg>
