<svg width="24" height="41" viewBox="0 0 24 41" fill="none" xmlns="http://www.w3.org/2000/svg">
<path d="M12.9863 28.334V25.5654C13.9844 25.5654 14.8252 25.4082 15.5088 25.0938C16.2061 24.7793 16.7393 24.3418 17.1084 23.7812C17.4775 23.207 17.6621 22.5645 17.6621 21.8535C17.6621 21.334 17.5596 20.8691 17.3545 20.459C17.1494 20.0488 16.8008 19.6729 16.3086 19.3311C15.8301 18.9756 15.1807 18.6338 14.3604 18.3057C13.54 17.9775 12.5215 17.6221 11.3047 17.2393C9.78711 16.8154 8.42676 16.3643 7.22363 15.8857C6.02051 15.3936 4.99512 14.8193 4.14746 14.1631C3.31348 13.4932 2.67773 12.7002 2.24023 11.7842C1.80273 10.8545 1.58398 9.74023 1.58398 8.44141C1.58398 7.26563 1.83008 6.20605 2.32227 5.2627C2.81445 4.31934 3.51855 3.5127 4.43457 2.84277C5.36426 2.15918 6.47168 1.63965 7.75684 1.28418C9.04199 0.915039 10.4844 0.730469 12.084 0.730469C14.2578 0.730469 16.1309 1.06543 17.7031 1.73535C19.2754 2.40527 20.4785 3.39648 21.3125 4.70898C22.1602 6.00781 22.584 7.60059 22.584 9.4873H17.1699C17.1699 8.65332 16.9717 7.90137 16.5752 7.23145C16.1924 6.54785 15.625 6.00781 14.873 5.61133C14.1348 5.20117 13.2051 4.99609 12.084 4.99609C10.9082 4.99609 9.94434 5.15332 9.19238 5.46777C8.4541 5.76855 7.90723 6.17871 7.55176 6.69824C7.19629 7.2041 7.01855 7.77148 7.01855 8.40039C7.01855 8.94727 7.10742 9.42578 7.28516 9.83594C7.46289 10.2324 7.77734 10.5879 8.22852 10.9023C8.67969 11.2168 9.30859 11.5244 10.1152 11.8252C10.9219 12.1123 11.9541 12.4268 13.2119 12.7686C14.7705 13.1787 16.1582 13.6299 17.375 14.1221C18.5918 14.6143 19.6172 15.1885 20.4512 15.8447C21.2988 16.501 21.9414 17.2871 22.3789 18.2031C22.8164 19.1055 23.0352 20.1787 23.0352 21.4229C23.0352 22.5439 22.7959 23.5352 22.3174 24.3965C21.8389 25.2441 21.1621 25.9619 20.2871 26.5498C19.4121 27.1377 18.3525 27.582 17.1084 27.8828C15.8779 28.1836 14.5039 28.334 12.9863 28.334ZM10.6484 13.0352V15.8652C9.66406 15.8652 8.85059 16.0225 8.20801 16.3369C7.5791 16.6514 7.11426 17.082 6.81348 17.6289C6.52637 18.1621 6.38281 18.7842 6.38281 19.4951C6.38281 20.0693 6.47168 20.5684 6.64941 20.9922C6.82715 21.416 7.1416 21.7988 7.59277 22.1406C8.05762 22.4688 8.69336 22.79 9.5 23.1045C10.3203 23.4189 11.3662 23.7607 12.6377 24.1299C14.1963 24.5537 15.584 25.0117 16.8008 25.5039C18.0176 25.9824 19.0361 26.5498 19.8564 27.2061C20.6904 27.8623 21.3193 28.6553 21.7432 29.585C22.1807 30.501 22.3994 31.6084 22.3994 32.9072C22.3994 34.1377 22.1533 35.2246 21.6611 36.168C21.1689 37.1113 20.4648 37.9043 19.5488 38.5469C18.6328 39.2031 17.5322 39.6953 16.2471 40.0234C14.9756 40.3652 13.5469 40.5361 11.9609 40.5361C10.5938 40.5361 9.24707 40.3926 7.9209 40.1055C6.6084 39.8184 5.42578 39.3398 4.37305 38.6699C3.32031 38.0137 2.47949 37.1318 1.85059 36.0244C1.22168 34.917 0.907227 33.543 0.907227 31.9023L6.32129 31.8818C6.32129 32.7295 6.48535 33.4404 6.81348 34.0146C7.1416 34.5889 7.5791 35.0332 8.12598 35.3477C8.67285 35.6758 9.28125 35.9082 9.95117 36.0449C10.6211 36.1816 11.291 36.25 11.9609 36.25C13.041 36.25 13.9502 36.1064 14.6885 35.8193C15.4404 35.5459 16.0078 35.1562 16.3906 34.6504C16.7871 34.1582 16.9854 33.5908 16.9854 32.9482C16.9854 32.4424 16.8828 31.998 16.6777 31.6152C16.4863 31.2324 16.1514 30.877 15.6729 30.5488C15.208 30.2207 14.5654 29.9062 13.7451 29.6055C12.9385 29.291 11.9336 28.9561 10.7305 28.6006C9.21289 28.1904 7.8457 27.7393 6.62891 27.2471C5.42578 26.7549 4.40039 26.1807 3.55273 25.5244C2.70508 24.8682 2.05566 24.0889 1.60449 23.1865C1.16699 22.2705 0.948242 21.1904 0.948242 19.9463C0.948242 18.8525 1.17383 17.8818 1.625 17.0342C2.08984 16.1865 2.74609 15.4688 3.59375 14.8809C4.44141 14.2793 5.45996 13.8213 6.64941 13.5068C7.83887 13.1924 9.17188 13.0352 10.6484 13.0352Z" fill="white"/>
</svg>
